HIERARCHY
ROOT Hips
{
	OFFSET 20.463800 -43.778099 7.826296
	CHANNELS 6 Xposition Yposition Zposition Zrotation Xrotation Yrotation
	JOINT Chest
	{
		OFFSET -0.076000 -8.347801 1.394599
		CHANNELS 6 Xposition Yposition Zposition Zrotation Xrotation Yrotation
		JOINT Chest2
		{
			OFFSET 0.000000 -3.321602 0.000000
			CHANNELS 6 Xposition Yposition Zposition Zrotation Xrotation Yrotation
			JOINT Neck
			{
				OFFSET 0.000000 -7.732101 -0.000001
				CHANNELS 6 Xposition Yposition Zposition Zrotation Xrotation Yrotation
				JOINT Head
				{
					OFFSET 0.000000 -2.173897 0.000000
					CHANNELS 6 Xposition Yposition Zposition Zrotation Xrotation Yrotation
					End Site
					{
						OFFSET 0.000000 -10.080803 -0.000001
					}
				}
			}
			JOINT LeftCollar
			{
				OFFSET 2.718100 -4.670502 -2.003100
				CHANNELS 6 Xposition Yposition Zposition Zrotation Xrotation Yrotation
				JOINT LeftShoulder
				{
					OFFSET 4.147100 0.000000 0.000000
					CHANNELS 6 Xposition Yposition Zposition Zrotation Xrotation Yrotation
					JOINT LeftElbow
					{
						OFFSET 0.000000 10.254799 0.000001
						CHANNELS 6 Xposition Yposition Zposition Zrotation Xrotation Yrotation
						JOINT LeftWrist
						{
							OFFSET 0.000000 12.664398 0.000001
							CHANNELS 6 Xposition Yposition Zposition Zrotation Xrotation Yrotation
							End Site
							{
								OFFSET 0.000000 2.173901 0.000000
							}
						}
					}
				}
			}
			JOINT RightCollar
			{
				OFFSET -2.489500 -4.979698 -2.085300
				CHANNELS 6 Xposition Yposition Zposition Zrotation Xrotation Yrotation
				JOINT RightShoulder
				{
					OFFSET -4.160400 0.000000 0.000000
					CHANNELS 6 Xposition Yposition Zposition Zrotation Xrotation Yrotation
					JOINT RightElbow
					{
						OFFSET 0.000000 10.253998 0.000001
						CHANNELS 6 Xposition Yposition Zposition Zrotation Xrotation Yrotation
						JOINT RightWrist
						{
							OFFSET 0.000000 12.768700 0.000001
							CHANNELS 6 Xposition Yposition Zposition Zrotation Xrotation Yrotation
							End Site
							{
								OFFSET 0.000000 2.173901 0.000000
							}
						}
					}
				}
			}
		}
	}
	JOINT LeftHip
	{
		OFFSET 2.212400 2.641499 -0.073599
		CHANNELS 6 Xposition Yposition Zposition Zrotation Xrotation Yrotation
		JOINT LeftKnee
		{
			OFFSET 0.000000 17.950598 0.000001
			CHANNELS 6 Xposition Yposition Zposition Zrotation Xrotation Yrotation
			JOINT LeftAnkle
			{
				OFFSET 0.000000 19.053900 0.000001
				CHANNELS 6 Xposition Yposition Zposition Zrotation Xrotation Yrotation
				End Site
				{
					OFFSET 0.000000 0.000000 -8.430400
				}
			}
		}
	}
	JOINT RightHip
	{
		OFFSET -2.162800 2.581299 -0.306099
		CHANNELS 6 Xposition Yposition Zposition Zrotation Xrotation Yrotation
		JOINT RightKnee
		{
			OFFSET 0.000000 18.327099 0.000001
			CHANNELS 6 Xposition Yposition Zposition Zrotation Xrotation Yrotation
			JOINT RightAnkle
			{
				OFFSET 0.000000 18.423401 0.000001
				CHANNELS 6 Xposition Yposition Zposition Zrotation Xrotation Yrotation
				End Site
				{
					OFFSET 0.000000 0.000001 -8.995800
				}
			}
		}
	}
}
MOTION
Frames: 6
Frame Time: 0.041667
33.061600 -42.553398 38.212135 -18.997889 0.169704 12.268117 -0.076006 -8.347792 1.394597 -6.310198 8.793406 -12.034112 0.000008 -3.321599 0.000005 0.121599 -4.435804 10.918511 -0.000003 -7.732099 0.000011 7.698191 5.198904 32.040817 0.000001 -2.173893 0.000005 -3.076997 -1.574202 3.391602 2.718101 -4.670501 -2.003094 -1.354705 4.198505 5.774407 4.147107 0.000000 0.000003 -100.509799 -34.803137 -10.287192 -0.000001 10.254799 0.000003 -0.438488 -68.272829 -16.138147 -0.000007 12.664391 -0.000000 13.962788 -82.440199 269.305343 -2.489499 -4.979709 -2.085292 1.417802 7.874908 -9.363508 -4.160411 -0.000005 0.000001 107.976507 -28.680699 25.550402 -0.000007 10.253988 -0.000008 -22.004723 -67.383142 41.858449 0.000002 12.768695 -0.000006 -272.388900 -129.883150 176.983124 2.212406 2.641496 -0.073604 13.906894 -15.608176 -3.918495 0.000018 17.950600 -0.000003 199.934704 -213.393701 -191.561507 0.000004 19.053898 0.000011 -0.922799 5.189164 0.957394 -2.162802 2.581300 -0.306105 75.718289 -22.286822 -195.108944 0.000006 18.327114 -0.000005 104.019068 6.421810 232.489804 -0.000005 18.423405 0.000003 -38.178104 -6.563680 12.462168 
33.381096 -42.529396 38.229931 -18.637595 0.653700 12.897616 -0.076000 -8.347796 1.394606 -7.368798 8.616407 -12.703013 -0.000004 -3.321607 -0.000009 0.070099 -3.874308 10.740006 -0.000002 -7.732098 0.000005 8.856593 5.927004 32.199615 -0.000003 -2.173907 0.000006 -3.536699 -1.609698 3.247101 2.718099 -4.670509 -2.003097 -1.525202 6.619507 5.622608 4.147101 -0.000011 -0.000004 -100.992898 -36.481540 -13.127888 0.000001 10.254808 0.000013 5.935831 -66.883432 -9.251034 -0.000003 12.664402 -0.000002 6.423166 -80.598179 264.020908 -2.489505 -4.979700 -2.085298 4.177401 6.753708 -9.199804 -4.160406 0.000002 0.000000 104.297207 -28.210616 23.995909 0.000001 10.253992 -0.000007 -23.475919 -66.047035 39.837355 -0.000002 12.768705 0.000013 -272.380185 -130.889565 177.045129 2.212402 2.641496 -0.073594 13.632900 -16.171682 -4.413994 0.000013 17.950598 0.000006 200.257417 -213.278422 -192.116706 -0.000002 19.053900 -0.000000 0.861205 4.984663 1.791484 -2.162796 2.581295 -0.306096 75.420991 -23.057826 -195.511146 0.000009 18.327116 0.000003 103.421966 7.204324 232.212416 -0.000008 18.423401 0.000002 -38.232899 -7.269679 12.499674 
33.775299 -42.452904 38.198029 -19.284788 0.315100 12.774820 -0.076008 -8.347794 1.394595 -6.222100 9.203409 -12.556414 -0.000001 -3.321613 -0.000002 -0.056402 -4.036707 11.335313 0.000010 -7.732091 -0.000002 8.216892 6.409302 31.811111 -0.000007 -2.173899 0.000005 -3.474495 -1.462899 2.536800 2.718110 -4.670499 -2.003099 -1.150900 6.212302 4.686906 4.147106 -0.000002 0.000001 -99.118995 -36.674042 -9.724986 0.000005 10.254791 0.000017 6.683698 -66.769832 -6.834877 0.000006 12.664402 0.000005 4.440714 -81.580790 262.202110 -2.489494 -4.979692 -2.085302 3.030901 8.425802 -10.760608 -4.160408 0.000004 -0.000002 104.644809 -25.706918 20.839513 -0.000009 10.254000 -0.000004 -18.588341 -66.796443 43.526945 -0.000002 12.768693 0.000001 -271.116600 -129.973459 178.915330 2.212398 2.641504 -0.073596 14.993599 -16.040481 -4.240488 0.000006 17.950598 -0.000006 199.933707 -213.522806 -189.640503 0.000011 19.053898 -0.000002 0.465801 4.873862 -0.481394 -2.162805 2.581301 -0.306097 76.767802 -23.044826 -195.488265 0.000011 18.327110 -0.000004 103.680264 6.945020 231.689716 0.000001 18.423407 0.000001 -37.703310 -6.930690 12.535170 
34.015900 -42.424099 38.196632 -19.126591 0.317694 12.781117 -0.076000 -8.347811 1.394598 -6.146296 9.868910 -12.560815 -0.000007 -3.321610 -0.000003 -0.155799 -4.048899 11.572714 0.000001 -7.732094 0.000016 7.740695 6.267901 31.396921 -0.000003 -2.173899 0.000010 -3.402798 -1.394203 2.357295 2.718101 -4.670498 -2.003089 0.020803 4.670802 2.000600 4.147114 -0.000004 -0.000001 -99.822204 -42.068337 -7.832093 0.000000 10.254798 -0.000004 11.772250 -64.433635 -1.697638 -0.000011 12.664391 0.000006 -3.730475 -80.476779 254.453288 -2.489501 -4.979701 -2.085285 2.481401 7.639205 -10.328507 -4.160410 -0.000004 0.000001 104.115101 -26.109517 21.093914 0.000005 10.254000 -0.000005 -25.118127 -64.197426 45.177648 -0.000002 12.768698 0.000003 -271.418494 -137.739357 177.134522 2.212408 2.641493 -0.073606 15.008398 -16.721480 -6.973890 0.000004 17.950600 -0.000004 198.731020 -215.095607 -189.201609 0.000003 19.053902 -0.000001 -0.716896 4.989060 1.662287 -2.162789 2.581293 -0.306104 76.951595 -23.295926 -196.042644 0.000009 18.327118 -0.000007 103.553864 7.370713 231.452025 -0.000004 18.423403 0.000002 -41.084814 -8.386982 11.682674 
34.175301 -42.398197 38.195126 -18.849997 0.606796 12.785522 -0.076000 -8.347787 1.394596 -6.729096 9.825110 -12.587816 0.000003 -3.321602 0.000001 -0.021299 -5.121205 11.514812 -0.000002 -7.732100 -0.000002 8.315491 8.046503 31.068912 0.000004 -2.173903 -0.000007 -3.485395 -1.125298 2.250306 2.718100 -4.670504 -2.003098 4.625202 9.018905 4.755904 4.147108 0.000005 -0.000002 -103.580003 -39.156552 -8.068391 -0.000000 10.254798 0.000004 14.359354 -63.080526 1.074661 -0.000009 12.664398 -0.000003 3.575318 -82.863500 264.765672 -2.489505 -4.979698 -2.085305 -0.421200 14.342612 -14.999316 -4.160416 -0.000002 -0.000009 108.250603 -18.754704 22.782601 -0.000005 10.254000 -0.000008 -25.712893 -63.224035 45.690889 -0.000000 12.768713 0.000014 -274.038801 -138.570564 175.237410 2.212400 2.641512 -0.073604 14.804298 -16.593581 -4.119693 0.000006 17.950598 0.000003 200.637217 -213.995414 -190.122714 0.000006 19.053900 -0.000001 0.353402 4.530566 -0.221396 -2.162798 2.581310 -0.306102 77.156098 -23.607818 -195.081541 0.000012 18.327114 -0.000005 103.867363 6.476321 231.021204 -0.000005 18.423403 -0.000002 -44.214710 -10.538576 11.145380 
34.293396 -42.365097 38.186726 -18.591493 0.891798 12.054417 -0.076000 -8.347806 1.394593 -6.618300 9.960408 -11.885310 0.000002 -3.321609 0.000001 -0.140304 -3.655405 11.909715 0.000003 -7.732094 -0.000003 7.458996 7.167303 30.868917 0.000004 -2.173912 0.000009 -2.837296 -1.126504 2.509299 2.718100 -4.670500 -2.003102 -0.710598 3.625903 1.508501 4.147108 -0.000008 -0.000005 -93.720598 -43.912331 -2.661788 0.000006 10.254791 0.000001 18.663355 -62.033035 5.164257 -0.000002 12.664393 -0.000004 -6.060943 -78.634295 254.117707 -2.489502 -4.979689 -2.085300 4.628207 7.927708 -11.544008 -4.160408 0.000009 0.000001 99.030503 -23.909914 19.951804 -0.000003 10.253992 -0.000013 -27.373115 -61.290040 40.812983 0.000001 12.768705 0.000007 -272.926709 -136.948776 176.773205 2.212404 2.641489 -0.073604 14.578991 -17.081478 -6.548089 0.000004 17.950596 -0.000002 199.546586 -215.416803 -189.408987 0.000005 19.053896 0.000009 -0.895796 4.861765 2.009385 -2.162794 2.581297 -0.306107 77.313493 -23.112622 -194.332242 0.000004 18.327118 -0.000008 103.981263 6.060512 231.087429 -0.000010 18.423397 -0.000008 -40.969414 -8.919172 12.394672 
